<?xml version="1.0" encoding="utf-8"?>
<!-- Generator: Adobe Illustrator 26.0.2, SVG Export Plug-In . SVG Version: 6.00 Build 0)  -->
<svg version="1.1" id="Layer_1" xmlns="http://www.w3.org/2000/svg" xmlns:xlink="http://www.w3.org/1999/xlink" x="0px" y="0px"
	 viewBox="0 0 529.3 108.5" style="enable-background:new 0 0 529.3 108.5;" xml:space="preserve">
<style type="text/css">
	.st0{fill:#1E1935;}
</style>
<g>
	<path class="st0" d="M142.9,2.4c0.1,5,0.1,38.6,0.1,38.6s-0.7,1.3-2.6,0.7c-1.7-2-13.8-13.5-13.8-13.5l-8.2,6L98.2,49l0.1,0
		l21.2-4.8V77c0,6.5-5.9,11.8-13.1,11.8H53.6l-20.6,18.8c-2.3,2.1-5.6,0.1-5.6-3.4V88.8H13.1C5.9,88.8,0,83.5,0,77V27.9
		c0-6.5,5.9-11.8,13.1-11.8h75.6c0,0,30.2,10.8-21.3,47.2c0,0,18.4,5.6,29.8-14.5h0l16.1-29.7l1.4-2.5L100.5,2.6c0,0-1-2,1.3-2.4
		c2.3-0.5,39.7,0,39.7,0S143.6,0.8,142.9,2.4z"/>
	<path class="st0" d="M98.2,49"/>
	<g>
		<path class="st0" d="M295.2,32.8c4.4,0,8.7,0,13.1,0c0.1,1.9,0.2,3.6,0.3,5.8c4.1-4.1,8.7-6.7,14.2-7c14.1-1,24.7,8.3,26.2,22.9
			c0.8,8-0.6,15.6-5.9,22c-8.5,10.1-23.7,11-33.4,2c-0.2-0.2-0.5-0.4-1.1-0.8c0,4.4,0,8.4,0,12.4c0,4.1,0,8.1,0,12.3
			c-4.6,0-8.9,0-13.3,0C295.2,79.2,295.2,56.1,295.2,32.8z M308.5,58.2c0.1,6,2.4,11.1,8.4,13.7c4.9,2.2,9.6,1.7,13.7-1.9
			c6.9-5.9,6.3-19.5-1.1-24.7c-4.2-3-8.9-3.3-13.5-0.9C310.5,47.2,308.5,52,308.5,58.2z"/>
		<path class="st0" d="M170.5,26.5c0-4,0-7.5,0-10.9c0.2-0.2,0.4-0.5,0.6-0.5c12,0,23.9-0.3,35.9,0.1c10.4,0.4,18.4,7.3,20.2,16.4
			c2.3,11.3-2,20.3-12.2,25.5c-0.3,0.2-0.6,0.4-1.1,0.7c4.9,8.4,9.7,16.8,14.9,25.8c-5.3,0-10,0.1-14.7-0.1c-0.9,0-1.9-1.4-2.5-2.4
			c-3.6-6.4-7.2-12.9-10.7-19.4c-0.9-1.7-1.9-2.6-3.9-2.4c-1.3,0.2-2.7,0-4.1,0.1c-5.5,0.3-8.4,3.1-8.5,8.6c-0.1,5.1,0,10.2,0,15.4
			c-4.8,0-9.1,0-13.4,0c0-6.6-0.7-13.2,0.2-19.5c1.4-9.7,9.3-15.6,19.7-16c3.9-0.1,7.7,0,11.6-0.1c7.2-0.2,11.5-4.2,11.4-10.7
			c0-6.7-4.1-10.6-11.5-10.6c-9.3-0.1-18.7,0-28,0C173.2,26.5,172,26.5,170.5,26.5z"/>
		<path class="st0" d="M285.9,61.9c-12.9,0-25.6,0-38.3,0c0.3,5.7,3.1,9.5,8.1,11.2c5.9,1.9,12.2,0.7,15.3-3.5
			c1.7-2.3,3.2-2.3,5.4-1.6c2.7,0.9,5.5,1.5,8.2,2.2c-2.5,10.4-15.2,16.5-29.9,14c-15.2-2.7-23.6-15.5-21-31.3
			c2.3-14.3,15-23.1,30.5-21.2C278.8,33.5,287.6,45.5,285.9,61.9z M272.3,52.8c-1.1-7.2-5.8-11.2-12.7-11c-6.7,0.2-11.4,4.5-12,11
			C255.8,52.8,263.9,52.8,272.3,52.8z"/>
		<path class="st0" d="M406.4,66.8c2.7-7.4,5.2-14.3,7.8-21.2c1.3-3.6,2.5-7.3,4.1-10.8c0.5-1,2-2.1,3.1-2.2
			c3.8-0.3,7.7-0.1,11.9-0.1c-3,7.6-5.8,14.8-8.6,22c-4.5,11.4-8.9,22.8-13.5,34.2c-5.1,12.5-15.3,17.6-31,12.3
			c1-3.4,1.9-6.8,2.9-10.2c12.3,1.1,13.6,0.3,18.8-11.2c0.7-1.6,1.3-3.3,2.3-5.8c-2.5,2.2-4.2,3.7-6.4,5.6
			c-6.6-15.8-12.9-31.1-19.5-46.9c4.7,0,9-0.2,13.3,0.1c0.9,0.1,2,1.6,2.4,2.7C398.2,45.6,402.1,55.9,406.4,66.8z"/>
		<path class="st0" d="M470.5,32.7c-1.1,6.4-3.3,8.6-9.4,9.7c-6.6,1.2-10.4,4.9-11.8,11.6c-1.4,6.8,0.9,13.6,5.9,17
			c6.3,4.3,15.2,2.1,18.9-4.5c3.9-7,2.2-16.1-3.9-21.3c-0.4-0.3-0.8-0.7-0.7-0.6c2.6-3.1,5.1-6,7.7-9.2
			c10.1,3.7,15.8,19.5,11.1,32.6c-5,13.8-21.3,20.5-36.4,15c-13.6-5-20.5-20.3-15.4-34.4C441.3,35.4,457,27.9,470.5,32.7z"/>
		<path class="st0" d="M528.1,32.5c0,3.9,0,7.2,0,10.8c-4.3,0-8.4,0-12.8,0c0,8.5-0.1,16.6,0.1,24.8c0.1,2.7,2.1,4.3,4.8,4.5
			c2.5,0.2,5,0,7.9,0c0.4,3.1,0.9,6.6,1.4,10c-5.7,3.2-18,2.2-22.8-1.9c-4-3.4-4.8-8.1-4.8-13c-0.1-7.9,0-15.9,0-24.1
			c-2.6-0.1-4.9-0.2-7.5-0.3c0-3.4,0-6.8,0-10.6c2.3,0,4.8,0,7.5,0c0-4.6,0-8.7,0-13.1c4.5,0,8.8,0,13.4,0c0,4.2,0,8.4,0,13
			C519.5,32.5,523.6,32.5,528.1,32.5z"/>
		<path class="st0" d="M358.8,14.4c4.3,0,8.5,0,13,0c0,23,0,45.9,0,69c-4.3,0-8.5,0-13,0C358.8,60.5,358.8,37.7,358.8,14.4z"/>
	</g>
</g>
</svg>
